<svg xmlns="http://www.w3.org/2000/svg" xmlns:xlink="http://www.w3.org/1999/xlink" width="400" height="400" viewBox="0 0 400 400" fill="none"><g opacity="1" transform="translate(0 0)  rotate(0 200 200)"><path id="矩形 2" fill-rule="evenodd" style="fill:#FFFFFF" transform="translate(0 0)  rotate(0 200 200)" opacity="1" d="M336,0C358.4,0 369.6,0 378.16,4.36a40,40 0 0,1 17.48,17.48C400,30.4 400,41.6 400,64 L400,336C400,358.4 400,369.6 395.64,378.16a40,40 0 0,1 -17.48,17.48C369.6,400 358.4,400 336,400 L64,400C41.6,400 30.4,400 21.84,395.64a40,40 0 0,1 -17.48,-17.48C0,369.6 0,358.4 0 336 L0,64C0,41.6 0,30.4 4.36,21.84a40,40 0 0,1 17.48,-17.48C30.4,0 41.6,0 64,0Z " /><path id="矩形 3" fill-rule="evenodd" style="fill:#2E2E2E" transform="translate(87 86)  rotate(0 29.5 23.5)" opacity="1" d="M35.5,0C38.77,0 40.41,0 41.8,0.2a20,20 0 0,1 17.01,17.01C59,18.59 59,20.23 59,23.5 L59,23.5C59,26.77 59,28.41 58.8,29.8a20,20 0 0,1 -17.01,17.01C40.41,47 38.77,47 35.5,47 L23.5,47C20.23,47 18.59,47 17.2,46.8a20,20 0 0,1 -17.01,-17.01C0,28.41 0,26.77 0 23.5 L0,23.5C0,20.23 0,18.59 0.2,17.2a20,20 0 0,1 17.01,-17.01C18.59,0 20.23,0 23.5,0Z " /><path id="矩形 1" fill-rule="evenodd" style="fill:#2E2E2E" transform="translate(87 156)  rotate(0 29.5 79)" opacity="1" d="M5,158L54,158C56.76,158 59,155.76 59,153L59,5C59,2.24 56.76,0 54,0L5,0C2.24,0 0,2.24 0,5L0,153C0,155.76 2.24,158 5,158Z " /><path id="拼合图形" fill-rule="evenodd" style="fill:#2E2E2E" transform="translate(164 86)  rotate(0 75.00000000000003 114.5)" opacity="1" d="M105.07,228.98C106.08,228.98 107.09,228.95 108.09,228.88C108.12,228.88 108.16,228.88 108.2,228.87C131.56,227.23 150,207.77 150,184L150,44L149.99,44L149.99,43.99C149.45,19.66 129.6,0.09 105.17,0C105.11,0 105.06,0 105,0L5,0C2.24,0 0,2.24 0,5L0,42C0,44.76 2.24,47 5,47L88,47C96.28,47 103,53.72 103,62L103,166.99C103,175.27 96.28,181.99 88,181.99L5,181.99C2.24,181.99 0,184.23 0,186.99L0,223.99C0,226.74 2.24,228.98 5,228.98L101.8,228.98C102.89,229 103.98,229 105.07,228.98Z " /></g></svg>