<svg xmlns="http://www.w3.org/2000/svg" xmlns:xlink="http://www.w3.org/1999/xlink" width="400" height="400" viewBox="0 0 400 400" fill="none"><defs><rect id="path_0" x="0" y="0" width="400" height="400" /></defs><g opacity="1" transform="translate(0 0)  rotate(0 200 200)"><mask id="bg-mask-0" fill="white"><use xlink:href="#path_0"></use></mask><g mask="url(#bg-mask-0)" ><g opacity="1" transform="translate(0 0)  rotate(0 200 200)"><path id="矩形 2" fill-rule="evenodd" style="fill:#FFFFFF" transform="translate(0 0)  rotate(0 200 200)" opacity="1" d="M336,400C358.4,400 369.6,400 378.16,395.64C385.69,391.81 391.81,385.69 395.64,378.16C400,369.6 400,358.4 400,336L400,64C400,41.6 400,30.4 395.64,21.84C391.81,14.31 385.69,8.19 378.16,4.36C369.6,0 358.4,0 336,0L64,0C41.6,0 30.4,0 21.84,4.36C14.31,8.19 8.19,14.31 4.36,21.84C0,30.4 0,41.6 0,64L0,336C0,358.4 0,369.6 4.36,378.16C8.19,385.69 14.31,391.81 21.84,395.64C30.4,400 41.6,400 64,400L336,400Z " /><path id="矩形 3" fill-rule="evenodd" style="fill:#2E2E2E" transform="translate(87 145)  rotate(0 29.5 23.5)" opacity="1" d="M41.8,0.2C40.41,0 38.77,0 35.5,0L23.5,0C20.23,0 18.59,0 17.21,0.19C8.38,1.44 1.45,8.37 0.2,17.2C0,18.59 0,20.23 0,23.5C0,26.77 0,28.41 0.19,29.79C1.44,38.62 8.37,45.55 17.2,46.8C18.59,47 20.23,47 23.5,47L35.5,47C38.77,47 40.41,47 41.79,46.81C50.62,45.56 57.55,38.63 58.8,29.8C59,28.41 59,26.77 59,23.5C59,20.23 59,18.59 58.81,17.21C57.56,8.38 50.63,1.45 41.8,0.2Z " /><path id="矩形 1" fill-rule="evenodd" style="fill:#2E2E2E" transform="translate(87 215)  rotate(0 29.5 79)" opacity="1" d="M54,158C56.76,158 59,155.76 59,153L59,5C59,2.24 56.76,0 54,0L5,0C2.24,0 0,2.24 0,5L0,153C0,155.76 2.24,158 5,158L54,158Z " /><path id="拼合图形" fill-rule="evenodd" style="fill:#2E2E2E" transform="translate(164 145)  rotate(0 75 114.4975)" opacity="1" d="M108.2,228.87C131.56,227.23 150,207.77 150,184L150,44L149.99,44L149.99,43.99C149.45,19.66 129.6,0.09 105.17,0C105.11,0 105.06,0 105,0L5,0C2.24,0 0,2.24 0,5L0,42C0,44.76 2.24,47 5,47L88,47C96.28,47 103,53.72 103,62L103,166.99C103,175.27 96.28,181.99 88,181.99L5,181.99C2.24,181.99 0,184.23 0,186.99L0,223.99C0,226.74 2.24,228.98 5,228.98L101.8,228.98C102.89,229 103.98,229 105.07,228.98C106.08,228.98 107.09,228.95 108.09,228.88C108.12,228.88 108.16,228.88 108.2,228.87Z " /></g></g></g></svg>