<svg xmlns="http://www.w3.org/2000/svg" xmlns:xlink="http://www.w3.org/1999/xlink" width="400" height="400" viewBox="0 0 400 400" fill="none"><g opacity="1" transform="translate(0 0)  rotate(0 200 200)"><path id="矩形 2" fill-rule="evenodd" style="fill:#3661F6" transform="translate(0 0)  rotate(0 200 200)" opacity="1" d="M336,0C358.4,0 369.6,0 378.16,4.36a40,40 0 0,1 17.48,17.48C400,30.4 400,41.6 400,64 L400,336C400,358.4 400,369.6 395.64,378.16a40,40 0 0,1 -17.48,17.48C369.6,400 358.4,400 336,400 L64,400C41.6,400 30.4,400 21.84,395.64a40,40 0 0,1 -17.48,-17.48C0,369.6 0,358.4 0 336 L0,64C0,41.6 0,30.4 4.36,21.84a40,40 0 0,1 17.48,-17.48C30.4,0 41.6,0 64,0Z " /><path id="矩形 3" fill-rule="evenodd" style="fill:#66CDB4" transform="translate(87 86)  rotate(0 29.5 23.5)" opacity="1" d="M51,0C53.8,0 55.2,0 56.27,0.54a5,5 0 0,1 2.19,2.19C59,3.8 59,5.2 59,8 L59,39C59,41.8 59,43.2 58.46,44.27a5,5 0 0,1 -2.19,2.19C55.2,47 53.8,47 51,47 L8,47C5.2,47 3.8,47 2.73,46.46a5,5 0 0,1 -2.19,-2.19C0,43.2 0,41.8 0 39 L0,8C0,5.2 0,3.8 0.54,2.73a5,5 0 0,1 2.19,-2.19C3.8,0 5.2,0 8,0Z " /><path id="矩形 1" fill-rule="evenodd" style="fill:#FFFFFF" transform="translate(87 156)  rotate(0 29.5 79)" opacity="1" d="M5,158L54,158C56.76,158 59,155.76 59,153L59,5C59,2.24 56.76,0 54,0L5,0C2.24,0 0,2.24 0,5L0,153C0,155.76 2.24,158 5,158Z " /><path id="拼合图形" fill-rule="evenodd" style="fill:#FFFFFF" transform="translate(164 86)  rotate(0 75.00000000000003 114.5)" opacity="1" d="M5,47L88,47C96.28,47 103,53.72 103,62L103,166.99C103,175.27 96.28,181.99 88,181.99L5,181.99C2.24,181.99 0,184.23 0,186.99L0,223.99C0,226.74 2.24,228.98 5,228.98L101.8,228.98C102.89,229 103.98,229 105.07,228.98C106.08,228.98 107.09,228.95 108.09,228.88C108.12,228.88 108.16,228.88 108.2,228.87C131.56,227.23 150,207.77 150,184L150,44L149.99,44L149.99,43.99C149.45,19.66 129.6,0.09 105.17,0C105.11,0 105.06,0 105,0L5,0C2.24,0 0,2.24 0,5L0,42C0,44.76 2.24,47 5,47Z " /></g></svg>