<?xml version="1.0" standalone="no"?>
<!DOCTYPE svg PUBLIC "-//W3C//DTD SVG 20010904//EN"
 "http://www.w3.org/TR/2001/REC-SVG-20010904/DTD/svg10.dtd">
<svg version="1.0" xmlns="http://www.w3.org/2000/svg"
 width="700.000000pt" height="700.000000pt" viewBox="0 0 700.000000 700.000000"
 preserveAspectRatio="xMidYMid meet">
<metadata>
Created by potrace 1.14, written by Peter Selinger 2001-2017
</metadata>
<g transform="translate(0.000000,700.000000) scale(0.100000,-0.100000)"
fill="#000000" stroke="none">
<path d="M5138 6734 c-2 -1 -28 -5 -58 -8 -166 -18 -389 -119 -548 -250 -119
-97 -217 -219 -290 -361 -77 -149 -113 -267 -168 -554 -73 -384 -83 -431 -115
-545 -159 -565 -458 -903 -819 -923 -182 -11 -362 60 -577 226 -82 62 -88 68
-254 222 -290 269 -428 375 -606 464 -255 126 -471 132 -651 16 -147 -96 -211
-253 -214 -529 -2 -187 28 -335 91 -460 126 -249 333 -350 791 -387 36 -3 83
-7 105 -10 102 -11 154 -16 200 -20 28 -3 70 -7 94 -10 24 -3 64 -8 90 -11 25
-2 53 -6 61 -9 8 -2 40 -7 70 -10 30 -3 63 -8 72 -11 9 -3 25 -7 36 -9 168
-32 344 -110 420 -184 77 -77 101 -137 103 -256 2 -110 -43 -215 -133 -311
-43 -46 -166 -135 -220 -160 -18 -8 -40 -19 -48 -24 -44 -28 -171 -78 -455
-182 -116 -42 -295 -127 -295 -139 0 -4 -8 -10 -17 -14 -26 -8 -123 -101 -174
-165 -134 -168 -190 -393 -143 -574 83 -321 447 -460 791 -301 123 57 205 116
329 240 113 112 180 206 277 385 146 271 240 386 363 444 84 40 166 56 269 52
259 -9 496 -144 679 -386 166 -220 229 -398 301 -850 5 -30 16 -92 32 -180 20
-111 79 -282 130 -375 44 -80 147 -189 215 -229 170 -98 384 -106 568 -19 135
63 242 179 348 379 66 123 131 335 158 514 3 25 8 52 9 60 17 95 24 411 12
550 -30 331 -137 587 -329 781 -120 121 -276 217 -402 248 -91 22 -131 25
-296 22 -512 -9 -551 -8 -665 31 -269 89 -491 272 -557 456 -92 256 111 590
492 812 191 111 321 162 650 255 275 77 384 113 499 166 282 130 551 411 691
723 27 62 66 175 76 221 2 11 8 43 14 70 23 112 18 292 -11 405 -20 77 -80
212 -128 285 -55 85 -174 206 -260 264 -114 78 -272 138 -407 157 -45 6 -192
12 -196 8z"/>
</g>
</svg>
