<svg width="150" height="84" viewBox="0 0 150 84" fill="none" xmlns="http://www.w3.org/2000/svg">
<path d="M136.92 0C136.117 0 135.332 0.0733846 134.569 0.209449C134.138 0.305764 133.709 0.418897 133.288 0.548846C132.249 0.869896 131.242 1.28726 130.29 1.79635C130.058 1.92172 129.829 2.0532 129.605 2.19079C127.528 3.44595 125.796 5.18115 124.549 7.20683C124.131 7.88715 123.763 8.59805 123.454 9.33035C122.948 10.5259 122.542 11.8345 122.245 13.2105C122.029 14.2317 121.837 15.2621 121.648 16.2635C120.982 19.8149 120.353 23.1661 118.677 26.5585C117.677 28.5705 115.943 31.3055 113.335 32.897C110.841 34.4105 108.112 34.5542 105.221 33.3174C103.33 32.5071 101.454 31.2291 99.3087 29.289C99.067 29.0689 98.8189 28.8472 98.5723 28.6224C95.3595 25.6963 91.716 22.3803 87.2929 21.2933C84.9268 20.7124 82.7401 21.1037 80.968 22.417C78.9461 23.9106 78.5651 26.528 78.5587 29.3196C78.5475 32.2855 79.4328 35.5602 81.9413 37.5003C84.1792 39.2278 87.1952 39.558 89.9582 39.8088C90.6946 39.876 91.431 39.9341 92.1674 39.9999C92.8926 40.0671 93.5809 40.1283 94.2677 40.2047C94.3974 40.2154 94.527 40.2307 94.6551 40.246C94.9336 40.2827 95.2522 40.3133 95.59 40.35C99.3952 40.7597 106.468 41.5195 107.074 45.8048C107.412 48.1958 106.388 50.1726 103.94 51.8405C101.824 53.2822 99.0238 54.2469 96.5569 55.0999C95.2458 55.5555 94.01 55.9821 93.0799 56.4178C91.3334 57.2342 89.7645 58.5581 88.6536 60.1435C87.4641 61.8374 86.8894 63.6965 86.9871 65.5081C87.0879 67.5032 88.0292 69.2384 89.6253 70.3927C91.2629 71.579 93.6882 71.9475 95.8157 71.4797C97.615 71.0898 99.1262 70.2902 100.673 69.0901C102.507 67.6729 104.022 65.9744 105.184 64.0389C105.469 63.5573 105.752 63.0589 106.021 62.5774C106.897 61.0226 107.795 59.4204 109.095 58.153C111.643 55.658 115.764 55.9775 118.714 57.3932C121.714 58.8348 124.208 61.5699 125.738 65.106C126.625 67.1546 126.997 69.402 127.355 71.5729C127.61 73.0773 127.868 74.6275 128.29 76.0997C128.698 77.5062 129.404 79.5548 130.855 81.0837C132.3 82.6079 134.316 83.4457 136.53 83.4457H136.578C138.915 83.4289 141.119 82.4902 142.629 80.8574C144.323 79.0305 146.472 75.612 147.105 69.6695C147.601 65.025 147.225 61.099 145.987 57.9894C144.736 54.8324 142.544 52.4047 139.486 50.7673C136.933 49.4021 134.074 49.5764 131.311 49.7415C129.161 49.8745 126.938 50.0075 124.863 49.4235C124.788 49.4021 124.717 49.3822 124.642 49.3608C124.336 49.2645 124.04 49.1605 123.766 49.0535C121.274 48.0521 115.618 45.1841 116.985 40.2261C118.091 36.2069 122.402 33.4458 125.819 31.8345C128.039 30.7872 130.399 30.1772 132.677 29.581C136.154 28.6775 139.749 27.7434 142.775 25.2499C145.885 22.6845 148.093 19.4526 149.115 16.0648C149.44 14.987 149.647 13.8923 149.722 12.7992C149.738 12.5821 149.746 12.3635 149.749 12.1418C149.687 5.42576 143.967 0 136.92 0Z" fill="url(#paint0_radial)"/>
<path d="M136.92 0C136.117 0 135.332 0.0733846 134.569 0.209449C134.138 0.305764 133.709 0.418897 133.288 0.548846C132.249 0.869896 131.242 1.28726 130.29 1.79635C130.058 1.92172 129.829 2.0532 129.605 2.19079C127.528 3.44595 125.796 5.18115 124.549 7.20683C124.131 7.88715 123.763 8.59805 123.454 9.33035C122.948 10.5259 122.542 11.8345 122.245 13.2105C122.029 14.2317 121.837 15.2621 121.648 16.2635C120.982 19.8149 120.353 23.1661 118.677 26.5585C117.677 28.5705 115.943 31.3055 113.335 32.897C110.841 34.4105 108.112 34.5542 105.221 33.3174C103.33 32.5071 101.454 31.2291 99.3087 29.289C99.067 29.0689 98.8189 28.8472 98.5723 28.6224C95.3595 25.6963 91.716 22.3803 87.2929 21.2933C84.9268 20.7124 82.7401 21.1037 80.968 22.417C78.9461 23.9106 78.5651 26.528 78.5587 29.3196C78.5475 32.2855 79.4328 35.5602 81.9413 37.5003C84.1792 39.2278 87.1952 39.558 89.9582 39.8088C90.6946 39.876 91.431 39.9341 92.1674 39.9999C92.8926 40.0671 93.5809 40.1283 94.2677 40.2047C94.3974 40.2154 94.527 40.2307 94.6551 40.246C94.9336 40.2827 95.2522 40.3133 95.59 40.35C99.3952 40.7597 106.468 41.5195 107.074 45.8048C107.412 48.1958 106.388 50.1726 103.94 51.8405C101.824 53.2822 99.0238 54.2469 96.5569 55.0999C95.2458 55.5555 94.01 55.9821 93.0799 56.4178C91.3334 57.2342 89.7645 58.5581 88.6536 60.1435C87.4641 61.8374 86.8894 63.6965 86.9871 65.5081C87.0879 67.5032 88.0292 69.2384 89.6253 70.3927C91.2629 71.579 93.6882 71.9475 95.8157 71.4797C97.615 71.0898 99.1262 70.2902 100.673 69.0901C102.507 67.6729 104.022 65.9744 105.184 64.0389C105.469 63.5573 105.752 63.0589 106.021 62.5774C106.897 61.0226 107.795 59.4204 109.095 58.153C111.643 55.658 115.764 55.9775 118.714 57.3932C121.714 58.8348 124.208 61.5699 125.738 65.106C126.625 67.1546 126.997 69.402 127.355 71.5729C127.61 73.0773 127.868 74.6275 128.29 76.0997C128.698 77.5062 129.404 79.5548 130.855 81.0837C132.3 82.6079 134.316 83.4457 136.53 83.4457H136.578C138.915 83.4289 141.119 82.4902 142.629 80.8574C144.323 79.0305 146.472 75.612 147.105 69.6695C147.601 65.025 147.225 61.099 145.987 57.9894C144.736 54.8324 142.544 52.4047 139.486 50.7673C136.933 49.4021 134.074 49.5764 131.311 49.7415C129.161 49.8745 126.938 50.0075 124.863 49.4235C124.788 49.4021 124.717 49.3822 124.642 49.3608C124.336 49.2645 124.04 49.1605 123.766 49.0535C121.274 48.0521 115.618 45.1841 116.985 40.2261C118.091 36.2069 122.402 33.4458 125.819 31.8345C128.039 30.7872 130.399 30.1772 132.677 29.581C136.154 28.6775 139.749 27.7434 142.775 25.2499C145.885 22.6845 148.093 19.4526 149.115 16.0648C149.44 14.987 149.647 13.8923 149.722 12.7992C149.738 12.5821 149.746 12.3635 149.749 12.1418C149.687 5.42576 143.967 0 136.92 0Z" fill="url(#paint1_radial)"/>
<path fill-rule="evenodd" clip-rule="evenodd" d="M133.279 5.70508C139.559 5.70508 143.944 11.1424 143.754 15.9746C143.111 32.3424 116.823 26.0805 115.746 41.3005C115.461 45.3195 120.319 50.7784 126.46 50.9278C133.589 51.1019 142.593 49.516 144.786 60.7037C146.872 71.3395 141.788 79.3367 135.477 78.6897C131.158 78.2471 130.035 72.7259 126.209 63.9492C122.799 56.1322 118.041 54.618 114.201 54.618C111.318 54.618 107.481 56.2514 105.257 61.6366C102.502 68.307 94.6844 70.1729 90.9354 65.4467C88.2997 62.1242 90.8361 57.479 95.676 56.3793C103.234 54.6622 110.269 50.1121 108.025 44.6029C106.039 39.7287 98.8552 39.4233 89.9417 38.7261C79.0179 37.8716 78.0985 25.5005 84.4867 23.6849C93.7095 21.0641 98.4661 34.9563 109.072 34.9563C116.481 34.9563 121.182 24.8598 122.77 16.5516C124.357 8.24346 127.99 5.70508 133.279 5.70508ZM133.279 6.43775C139.098 6.43775 143.171 11.4689 142.995 15.947C142.687 23.778 136.147 26.0992 129.653 28.3796C126.898 29.3467 124.136 30.2944 121.777 31.5729C118.068 33.5827 115.331 36.3955 114.987 41.251C114.863 43.011 115.613 45.0329 117.019 46.8244C119.073 49.441 122.512 51.5647 126.44 51.6605C128.571 51.712 130.869 51.6055 133.103 51.7328C136.051 51.9016 138.891 52.4661 140.993 54.5075C142.398 55.8723 143.461 57.8889 144.039 60.8403C145.241 66.9663 144.008 72.1881 141.485 75.2454C139.91 77.1554 137.829 78.1941 135.557 77.9611C134.06 77.8077 133.035 76.913 132.097 75.4516C130.489 72.9462 129.185 68.885 126.909 63.6652C123.316 55.4236 118.25 53.8846 114.201 53.8846C111.105 53.8846 106.939 55.5837 104.551 61.3654C102.039 67.4478 94.9575 69.3116 91.5393 65.0013C89.2197 62.078 91.5914 58.0603 95.8505 57.0926C100.56 56.0224 105.058 53.8659 107.412 51.0979C109.106 49.1068 109.739 46.805 108.733 44.3351C107.859 42.192 106.093 40.8284 103.635 39.943C100.23 38.7168 95.4342 38.4207 90.0036 37.9955C83.9558 37.5227 81.1998 33.2538 81.261 29.5289C81.2999 27.1714 82.4632 25.0238 84.7022 24.3877C86.8015 23.7911 88.6457 24.1434 90.3837 24.9936C92.2384 25.901 93.9735 27.357 95.7553 28.8853C99.5585 32.1461 103.574 35.6883 109.072 35.6883C112.259 35.6883 115.001 33.9872 117.228 31.3311C120.408 27.5391 122.542 21.7852 123.517 16.6843C124.419 11.9646 125.961 9.18421 128.178 7.73688C129.617 6.79719 131.328 6.43775 133.279 6.43775Z" fill="url(#paint2_radial)"/>
<path d="M0 66.8083H7.43172C12.2538 66.8083 15.9413 65.1744 15.9413 60.4941C15.9413 58.2232 14.6365 56.7277 11.8567 56.3954V56.34C14.211 55.7307 16.4519 54.2629 16.4519 51.0227C16.4519 48.6964 15.1187 46.7578 10.9207 46.7578H2.8649L0 66.8083ZM7.00624 63.762H4.79374L5.58797 58.1678H7.7721C9.67258 58.1678 11.3461 58.4447 11.3461 60.4664C11.3461 63.2358 9.64421 63.762 7.00624 63.762ZM7.60191 55.1214H6.01345L6.77931 49.8596H8.56633C10.5519 49.8596 12.0553 49.9426 12.0553 51.8535C12.0553 54.6229 9.78604 55.1214 7.60191 55.1214Z" fill="#F21D68"/>
<path d="M24.06 67.1512C29.8466 67.1512 32.4845 62.9417 32.4845 58.3168C32.4845 54.7719 30.8961 52.1133 26.1874 52.1133C20.4576 52.1133 17.6211 56.1012 17.6211 61.0031C17.6211 64.8526 19.5783 67.1512 24.06 67.1512ZM24.4004 64.2433C22.8403 64.2433 21.961 63.3294 21.961 61.0308C21.961 58.6768 22.6701 55.1042 25.6769 55.1042C27.1802 55.1042 28.0312 55.9628 28.0312 58.1783C28.0312 60.4769 27.4071 64.2433 24.4004 64.2433Z" fill="#F21D68"/>
<path d="M47.589 63.3848L49.1775 52.3902H45.178L44.9511 53.5534C44.1001 52.7502 42.8804 52.1133 41.1217 52.1133C37.2924 52.1133 33.9453 55.4643 33.9453 61.5293C33.9453 65.4895 35.9593 67.1512 38.9092 67.1512C40.7814 67.1512 42.4549 66.348 43.5328 65.1295C43.7314 66.5142 44.639 67.0958 46.3126 67.0958C47.1636 67.0958 48.4116 66.8465 48.9506 66.5973L49.2059 64.3264C48.8088 64.4372 48.5535 64.4648 48.2982 64.4648C47.589 64.4648 47.4756 64.1325 47.589 63.3848ZM44.3554 56.212L43.4193 62.7755C42.3982 63.6617 41.5189 63.9387 40.6679 63.9387C39.2213 63.9387 38.4554 62.9694 38.4554 61.0308C38.4554 58.7322 39.278 55.3258 42.0294 55.3258C42.9371 55.3258 43.8165 55.7135 44.3554 56.212Z" fill="#F21D68"/>
<path d="M55.205 66.8189L56.5382 57.6244C58.0416 56.5166 59.7719 55.9628 61.7007 56.0735L62.268 52.1687C62.0127 52.141 61.7574 52.1133 61.5021 52.1133C59.2613 52.1133 57.8147 53.3872 56.6517 54.7996H56.5949L56.907 52.3902H52.9925L50.9219 66.8189H55.205Z" fill="#F21D68"/>
<path d="M71.9859 66.8094H75.5883L78.5951 45.9004H74.4821L73.4042 53.5163C72.5249 52.7131 71.3903 52.1039 69.6316 52.1039C66.3129 52.1039 62.3984 54.5963 62.3984 61.5476C62.3984 65.4524 64.3556 67.1418 67.334 67.1418C69.1778 67.1418 70.7662 66.3663 71.9292 65.2586L71.9859 65.2863V66.8094ZM72.8369 56.1472L71.8725 62.8215C71.0499 63.4861 70.0854 63.8462 69.121 63.8462C67.4191 63.8462 66.9085 62.3784 66.9085 61.1321C66.9085 58.4735 67.8162 55.2887 70.596 55.2887C71.5321 55.2887 72.3547 55.7318 72.8369 56.1472Z" fill="#F21D68"/>
<defs>
<radialGradient id="paint0_radial" cx="0" cy="0" r="1" gradientUnits="userSpaceOnUse" gradientTransform="translate(98.418 16.3841) rotate(45.628) scale(51.6208 62.2736)">
<stop stop-color="#F4A261"/>
<stop offset="1" stop-color="#F21D68"/>
</radialGradient>
<radialGradient id="paint1_radial" cx="0" cy="0" r="1" gradientUnits="userSpaceOnUse" gradientTransform="translate(88.743 23.9536) rotate(45.0325) scale(43.4102 52.4301)">
<stop stop-color="#F4A261"/>
<stop offset="1" stop-color="#F4A261" stop-opacity="0"/>
</radialGradient>
<radialGradient id="paint2_radial" cx="0" cy="0" r="1" gradientUnits="userSpaceOnUse" gradientTransform="translate(86.8605 26.9424) rotate(38.5689) scale(69.6979 69.1726)">
<stop stop-color="#FFFFC2"/>
<stop offset="0.43" stop-color="#FFC2C6"/>
<stop offset="1" stop-color="#FF3AD0"/>
</radialGradient>
</defs>
</svg>
